<?xml version="1.0" encoding="utf-8"?>
<!-- Generator: Adobe Illustrator 21.0.0, SVG Export Plug-In . SVG Version: 6.00 Build 0)  -->
<svg version="1.1" id="Layer_1" xmlns="http://www.w3.org/2000/svg" xmlns:xlink="http://www.w3.org/1999/xlink" x="0px" y="0px"
	 viewBox="0 0 208.5 101.2" style="enable-background:new 0 0 208.5 101.2;" xml:space="preserve">
<style type="text/css">
	.st0{fill:#283F54;}
</style>
<g>
	<g>
		<path class="st0" d="M79.5,63.7h-1.9v-2.3h5.9v8.6c0.8-1.7,2.1-2.9,4.1-2.9c1.5,0,2.5,0.5,3.3,1.3c1.2,1.2,1.8,3.1,1.8,5.4
			c0,2.3-0.7,4.2-1.8,5.3c-0.9,0.9-2.1,1.4-3.4,1.4c-2.3,0-3.6-1.1-4.5-2.7l-1.3,2.6h-2.1V63.7z M88.4,74c0-2.7-0.7-4.2-2.3-4.2
			c-1.8,0-2.7,1.9-2.7,4.4c0,2.5,1,4.3,2.7,4.3C87.7,78.4,88.4,76.9,88.4,74z"/>
		<path class="st0" d="M94.3,74c0-4,3-6.8,7-6.8c4.1,0,6.9,2.7,6.9,6.6c0,4-3,6.8-6.9,6.8C97.1,80.6,94.3,78,94.3,74z M103.8,73.9
			c0-3.5-0.9-4.8-2.6-4.8c-1.7,0-2.5,1.4-2.5,4.9c0,3.5,0.9,4.8,2.6,4.8S103.8,77.4,103.8,73.9z"/>
		<path class="st0" d="M109.7,74c0-4,3-6.8,7-6.8c4.1,0,6.9,2.7,6.9,6.6c0,4-3,6.8-6.9,6.8C112.6,80.6,109.7,78,109.7,74z
			 M119.2,73.9c0-3.5-0.9-4.8-2.6-4.8c-1.7,0-2.5,1.4-2.5,4.9c0,3.5,0.9,4.8,2.6,4.8S119.2,77.4,119.2,73.9z"/>
		<path class="st0" d="M135.1,72.4l4.2,5.7h1.4v2.3h-7.1v-2.2h1.4l-2.5-3.6l-1.6,1.5v2.1h1.4v2.2H125v-2.3h1.9V63.7H125v-2.3h5.9
			v12.3l4.3-4h-2v-2.2h6.7v2.3H138L135.1,72.4z"/>
		<path class="st0" d="M146.1,78.1h2.1V63.7h-2.1v-2.3h6.1v16.7h2.1v2.3h-8.2V78.1z"/>
		<path class="st0" d="M155.7,78.1h2.1v-8.3h-2.1v-2.3h6.1v10.6h2.1v2.3h-8.2V78.1z M157.2,63.3c0-1.3,1-2.4,2.4-2.4
			c1.5,0,2.5,1,2.5,2.3c0,1.3-1,2.4-2.5,2.4C158.1,65.6,157.2,64.7,157.2,63.3z"/>
		<path class="st0" d="M171.2,75.5c-0.5,0-1.3-0.1-1.8-0.1c-0.8,0-1.3,0.4-1.3,0.9c0,0.6,0.5,0.9,2,0.9h3.5c3.4,0,4.7,1.4,4.7,3.4
			c0,2.6-2.3,4.5-7.9,4.5c-4.2,0-6-1.1-6-2.8c0-1.3,1.1-2.2,3-2.4v-0.1c-1.6-0.3-2.3-1.3-2.3-2.4c0-1.3,1.3-2.5,3.2-2.7
			c-1.8-0.5-3-1.6-3-3.4c0-2.3,2-4.1,5.6-4.1c0.9,0,1.6,0.1,2.3,0.3c0.6-1.8,1.9-2.9,3.7-2.9c1.6,0,2.3,1,2.3,1.9
			c0,1-0.7,1.7-1.7,1.7c-1,0-1.6-0.6-1.6-1.5c0-0.1,0-0.2,0-0.4c-0.5,0.1-1.1,0.5-1.5,1.5c1.4,0.7,2.1,1.8,2.1,3.4
			C176.8,74,174.8,75.5,171.2,75.5z M174.8,81.6c0-0.7-0.6-1.1-2.2-1.1h-3.3c-1.5,0-2.2,0.6-2.2,1.3c0,0.8,0.9,1.5,3.8,1.5
			C173.7,83.3,174.8,82.6,174.8,81.6z M172.9,71.4c0-1.7-0.6-2.7-1.9-2.7c-1.2,0-1.8,0.9-1.8,2.7c0,1.8,0.6,2.7,1.9,2.7
			C172.4,74.1,172.9,73.2,172.9,71.4z"/>
		<path class="st0" d="M179.2,78.1h1.9V63.7h-1.9v-2.3h5.9v9c1-1.9,2.3-3.2,4.4-3.2c2.8,0,3.9,1.9,3.9,4.5v6.3h1.8v2.3H188v-2.3h1.5
			v-5.8c0-0.9-0.2-1.5-0.6-1.9c-0.3-0.3-0.7-0.4-1.3-0.4c-1.3,0-2.4,1.3-2.4,3.1v5h1.4v2.3h-7.3V78.1z"/>
		<path class="st0" d="M201.9,64.2v3.5h4.1v2.1h-4.1v6.5c0,1.2,0.4,1.8,1.3,1.8c0.8,0,1.2-0.6,1.7-2.4l1.6,0.5
			c-0.6,3.1-1.9,4.5-4.5,4.5c-2.8,0-4.2-1.5-4.2-4.4v-6.4h-2.3v-2.1h2.4v-3L201.9,64.2z"/>
	</g>
	<g>
		<path class="st0" d="M80.3,94.6h0.9v-6.5h-0.9v-0.4h1.6v6.9h0.9V95h-2.5V94.6z"/>
		<path class="st0" d="M83.3,94.6h0.9v-3.9h-0.9v-0.4h1.6v4.3h0.9V95h-2.5V94.6z M84,88.6c0-0.3,0.2-0.5,0.5-0.5
			c0.3,0,0.5,0.2,0.5,0.5c0,0.3-0.2,0.5-0.5,0.5C84.2,89.1,84,88.9,84,88.6z"/>
		<path class="st0" d="M86.9,88.1h-0.8v-0.4h1.5v3.7c0.4-0.8,1-1.2,1.6-1.2c0.5,0,0.8,0.2,1.1,0.4c0.5,0.4,0.7,1.1,0.7,2
			c0,0.8-0.3,1.6-0.7,2c-0.3,0.3-0.7,0.5-1.2,0.5c-0.7,0-1.3-0.4-1.6-1.2l-0.3,1.1h-0.3V88.1z M90.3,92.6c0-1.3-0.5-2-1.3-2
			c-0.8,0-1.4,0.9-1.4,2.1c0,1.2,0.7,1.9,1.4,1.9C89.8,94.6,90.3,93.9,90.3,92.6z"/>
		<path class="st0" d="M91.9,94.6h0.8v-3.9h-0.8v-0.4h1.5v1.1c0.4-0.8,0.9-1.2,1.5-1.2c0.4,0,0.7,0.3,0.7,0.7c0,0.3-0.2,0.6-0.5,0.6
			c-0.3,0-0.5-0.2-0.5-0.5c0-0.1,0-0.2,0.1-0.2c-0.6-0.1-1.1,0.7-1.2,1.1v2.8h1V95h-2.5V94.6z"/>
		<path class="st0" d="M96.1,93.9c0-0.3,0.1-0.6,0.3-0.8c0.4-0.4,0.8-0.5,1.8-0.7c0.7-0.1,0.8-0.2,0.8-0.3v-0.4c0-0.8-0.4-1-1-1
			c-0.4,0-0.8,0.1-1,0.3c0.2,0.1,0.3,0.3,0.3,0.5c0,0.3-0.2,0.5-0.5,0.5c-0.3,0-0.5-0.2-0.5-0.5c0-0.6,0.9-1.1,1.8-1.1
			c1.1,0,1.6,0.5,1.6,1.4v2.5c0,0.4,0.2,0.5,0.3,0.5c0.2,0,0.3-0.1,0.5-0.4l0.3,0.1c-0.2,0.5-0.4,0.8-0.9,0.8
			c-0.4,0-0.7-0.2-0.8-0.9h0c-0.4,0.5-1,0.9-1.6,0.9C96.6,95.1,96.1,94.6,96.1,93.9z M99,93.6v-1c-0.1,0-0.3,0.1-0.6,0.1
			c-1.1,0.2-1.6,0.5-1.6,1.1c0,0.6,0.3,0.9,0.9,0.9C98.4,94.6,99,94.1,99,93.6z"/>
		<path class="st0" d="M101,94.6h0.8v-3.9H101v-0.4h1.5v1.1c0.4-0.8,0.9-1.2,1.5-1.2c0.4,0,0.7,0.3,0.7,0.7c0,0.3-0.2,0.6-0.5,0.6
			c-0.3,0-0.5-0.2-0.5-0.5c0-0.1,0-0.2,0.1-0.2c-0.6-0.1-1.1,0.7-1.2,1.1v2.8h1V95H101V94.6z"/>
		<path class="st0" d="M106.1,95.9c0,0.2-0.1,0.3-0.1,0.4c0.4,0,0.8-0.2,1.3-1.3c-0.4-1-1.7-4.3-1.7-4.3h-0.6v-0.4h2.2v0.4h-0.8
			l1.3,3.5l1.3-3.5h-0.8v-0.4h1.8v0.4h-0.5l-1.6,4.1c-0.6,1.5-1.2,2-1.9,2c-0.6,0-0.9-0.3-0.9-0.7c0-0.3,0.2-0.6,0.5-0.6
			C105.9,95.5,106.1,95.6,106.1,95.9z"/>
		<path class="st0" d="M118.4,90.2c0.8,0,1.3,0.5,1.3,1.5v2.9h0.8V95h-2.2v-0.4h0.7v-2.5c0-0.5,0-0.9-0.3-1.1
			c-0.2-0.2-0.4-0.2-0.6-0.2c-0.8,0-1.4,0.9-1.4,1.5v2.3h0.7V95h-2.1v-0.4h0.7v-2.5c0-0.5,0-0.9-0.3-1.1c-0.2-0.2-0.4-0.2-0.6-0.2
			c-0.8,0-1.4,0.9-1.4,1.5v2.3h0.7V95h-2.2v-0.4h0.8v-3.9h-0.8v-0.4h1.5v1.2c0.6-1,1.2-1.3,1.8-1.3c0.8,0,1.2,0.4,1.3,1.3
			C117.2,90.5,117.9,90.2,118.4,90.2z"/>
		<path class="st0" d="M121.2,93.9c0-0.3,0.1-0.6,0.3-0.8c0.4-0.4,0.8-0.5,1.8-0.7c0.7-0.1,0.8-0.2,0.8-0.3v-0.4c0-0.8-0.4-1-1-1
			c-0.4,0-0.8,0.1-1,0.3c0.2,0.1,0.3,0.3,0.3,0.5c0,0.3-0.2,0.5-0.5,0.5c-0.3,0-0.5-0.2-0.5-0.5c0-0.6,0.9-1.1,1.8-1.1
			c1.1,0,1.6,0.5,1.6,1.4v2.5c0,0.4,0.1,0.5,0.3,0.5c0.2,0,0.3-0.1,0.5-0.4l0.3,0.1c-0.2,0.5-0.4,0.8-0.9,0.8
			c-0.4,0-0.7-0.2-0.8-0.9h0c-0.4,0.5-1,0.9-1.6,0.9C121.7,95.1,121.2,94.6,121.2,93.9z M124.1,93.6v-1c-0.1,0-0.3,0.1-0.6,0.1
			c-1.1,0.2-1.6,0.5-1.6,1.1c0,0.6,0.3,0.9,0.9,0.9C123.4,94.6,124.1,94.1,124.1,93.6z"/>
		<path class="st0" d="M126.1,94.6h0.8v-3.9h-0.8v-0.4h1.5v1.2c0.6-1,1.3-1.3,1.8-1.3c0.8,0,1.3,0.5,1.3,1.5v2.9h0.8V95h-2.2v-0.4
			h0.7v-2.5c0-0.5-0.1-0.9-0.3-1.1c-0.2-0.2-0.4-0.2-0.6-0.2c-0.8,0-1.5,0.9-1.5,1.5v2.3h0.7V95h-2.2V94.6z"/>
		<path class="st0" d="M134.1,93.3c-0.2,0-0.5,0-0.7,0c-0.4,0-0.6,0.2-0.6,0.4c0,0.3,0.4,0.4,1,0.4h1.3c0.9,0,1.3,0.4,1.3,1
			c0,0.9-0.9,1.6-2.3,1.6c-1.3,0-2-0.5-2-1.1c0-0.5,0.4-0.8,1-1v0c-0.6-0.2-0.8-0.4-0.8-0.7c0-0.3,0.3-0.6,0.9-0.8
			c-0.5-0.3-0.8-0.7-0.8-1.3c0-1,0.8-1.6,1.8-1.6c0.3,0,0.6,0.1,0.8,0.2c0.3-0.6,0.7-1,1.2-1c0.3,0,0.6,0.2,0.6,0.5
			c0,0.3-0.2,0.5-0.4,0.5c-0.2,0-0.4-0.2-0.4-0.4c0,0,0-0.1,0-0.1c-0.2,0-0.5,0.2-0.7,0.6c0.4,0.3,0.7,0.7,0.7,1.2
			C135.9,92.7,135.2,93.3,134.1,93.3z M135.7,95.3c0-0.4-0.3-0.6-0.8-0.6h-1.2c-0.7,0-1.1,0.3-1.1,0.8c0,0.5,0.4,0.8,1.4,0.8
			C135,96.3,135.7,95.9,135.7,95.3z M135.1,91.8c0-0.7-0.4-1.2-1.1-1.2c-0.6,0-1,0.4-1,1.2c0,0.8,0.5,1.2,1.1,1.2
			C134.7,92.9,135.1,92.5,135.1,91.8z"/>
		<path class="st0" d="M137.1,93.9c0-0.3,0.1-0.6,0.3-0.8c0.4-0.4,0.8-0.5,1.8-0.7c0.7-0.1,0.8-0.2,0.8-0.3v-0.4c0-0.8-0.4-1-1-1
			c-0.4,0-0.8,0.1-1,0.3c0.2,0.1,0.3,0.3,0.3,0.5c0,0.3-0.2,0.5-0.5,0.5c-0.3,0-0.5-0.2-0.5-0.5c0-0.6,0.9-1.1,1.8-1.1
			c1.1,0,1.6,0.5,1.6,1.4v2.5c0,0.4,0.2,0.5,0.3,0.5c0.2,0,0.3-0.1,0.5-0.4l0.3,0.1c-0.2,0.5-0.4,0.8-0.9,0.8
			c-0.4,0-0.7-0.2-0.8-0.9h0c-0.4,0.5-1,0.9-1.6,0.9C137.6,95.1,137.1,94.6,137.1,93.9z M140,93.6v-1c-0.1,0-0.3,0.1-0.6,0.1
			c-1.1,0.2-1.6,0.5-1.6,1.1c0,0.6,0.3,0.9,0.9,0.9C139.3,94.6,140,94.1,140,93.6z"/>
		<path class="st0" d="M148.3,90.2c0.8,0,1.3,0.5,1.3,1.5v2.9h0.8V95h-2.2v-0.4h0.7v-2.5c0-0.5,0-0.9-0.3-1.1
			c-0.2-0.2-0.4-0.2-0.6-0.2c-0.8,0-1.4,0.9-1.4,1.5v2.3h0.7V95h-2.1v-0.4h0.7v-2.5c0-0.5,0-0.9-0.3-1.1c-0.2-0.2-0.4-0.2-0.6-0.2
			c-0.8,0-1.4,0.9-1.4,1.5v2.3h0.7V95H142v-0.4h0.8v-3.9H142v-0.4h1.5v1.2c0.6-1,1.2-1.3,1.8-1.3c0.8,0,1.2,0.4,1.3,1.3
			C147.1,90.5,147.7,90.2,148.3,90.2z"/>
		<path class="st0" d="M151.7,92.7c0,1.3,0.7,2,1.6,2c0.6,0,1.1-0.2,1.4-1h0.4c-0.3,0.9-1,1.4-1.9,1.4c-1.3,0-2.2-1-2.2-2.4
			c0-1.5,1-2.5,2.2-2.5c1.3,0,2,1.2,1.9,2.5H151.7z M151.7,92.2h2.6c-0.1-1.1-0.5-1.7-1.2-1.7C152.4,90.6,151.8,91.2,151.7,92.2z"/>
		<path class="st0" d="M155.9,94.6h0.8v-3.9h-0.8v-0.4h1.5v1.2c0.6-1,1.3-1.3,1.8-1.3c0.8,0,1.3,0.5,1.3,1.5v2.9h0.8V95H159v-0.4
			h0.7v-2.5c0-0.5-0.1-0.9-0.3-1.1c-0.2-0.2-0.4-0.2-0.6-0.2c-0.8,0-1.5,0.9-1.5,1.5v2.3h0.7V95h-2.2V94.6z"/>
		<path class="st0" d="M163.1,88.8v1.4h1.6v0.4h-1.6v3.1c0,0.5,0.2,0.8,0.6,0.8c0.4,0,0.6-0.3,0.8-0.9l0.3,0.1
			c-0.3,0.9-0.7,1.3-1.3,1.3c-0.8,0-1.2-0.5-1.2-1.3v-3.1h-1v-0.4h1v-1.3L163.1,88.8z"/>
		<path class="st0" d="M167.4,93.3h0.4c0.3,0.9,0.8,1.4,1.6,1.4c0.6,0,1-0.3,1-0.8c0-0.5-0.4-0.7-1.3-1c-1.2-0.3-1.6-0.7-1.6-1.4
			c0-0.7,0.6-1.3,1.6-1.3c0.6,0,1,0.2,1.3,0.6l0.1-0.6h0.3v1.6h-0.3c-0.3-0.8-0.7-1.3-1.4-1.3c-0.5,0-0.9,0.3-0.9,0.7
			c0,0.5,0.4,0.7,1.3,1c1.2,0.3,1.6,0.6,1.6,1.4c0,0.7-0.6,1.4-1.6,1.4c-0.7,0-1.2-0.3-1.6-0.7l-0.1,0.7h-0.3V93.3z"/>
		<path class="st0" d="M172.6,95.9c0,0.2-0.1,0.3-0.1,0.4c0.4,0,0.8-0.2,1.3-1.3c-0.4-1-1.7-4.3-1.7-4.3h-0.6v-0.4h2.2v0.4h-0.8
			l1.3,3.5l1.3-3.5h-0.8v-0.4h1.8v0.4h-0.5l-1.6,4.1c-0.6,1.5-1.2,2-1.9,2c-0.6,0-0.9-0.3-0.9-0.7c0-0.3,0.2-0.6,0.5-0.6
			C172.4,95.5,172.6,95.6,172.6,95.9z"/>
		<path class="st0" d="M176.9,93.3h0.4c0.3,0.9,0.8,1.4,1.6,1.4c0.6,0,1-0.3,1-0.8c0-0.5-0.4-0.7-1.3-1c-1.2-0.3-1.6-0.7-1.6-1.4
			c0-0.7,0.6-1.3,1.6-1.3c0.6,0,1,0.2,1.3,0.6l0.1-0.6h0.3v1.6H180c-0.3-0.8-0.7-1.3-1.4-1.3c-0.5,0-0.9,0.3-0.9,0.7
			c0,0.5,0.4,0.7,1.3,1c1.2,0.3,1.6,0.6,1.6,1.4c0,0.7-0.6,1.4-1.6,1.4c-0.7,0-1.2-0.3-1.6-0.7l-0.1,0.7h-0.3V93.3z"/>
		<path class="st0" d="M182.7,88.8v1.4h1.6v0.4h-1.6v3.1c0,0.5,0.2,0.8,0.6,0.8c0.4,0,0.6-0.3,0.8-0.9l0.3,0.1
			c-0.3,0.9-0.7,1.3-1.3,1.3c-0.8,0-1.2-0.5-1.2-1.3v-3.1h-1v-0.4h1v-1.3L182.7,88.8z"/>
		<path class="st0" d="M185.8,92.7c0,1.3,0.7,2,1.6,2c0.6,0,1.1-0.2,1.4-1h0.4c-0.3,0.9-1,1.4-1.9,1.4c-1.3,0-2.2-1-2.2-2.4
			c0-1.5,1-2.5,2.2-2.5c1.3,0,2,1.2,1.9,2.5H185.8z M185.8,92.2h2.6c-0.1-1.1-0.5-1.7-1.2-1.7C186.4,90.6,185.9,91.2,185.8,92.2z"/>
		<path class="st0" d="M196.1,90.2c0.8,0,1.3,0.5,1.3,1.5v2.9h0.8V95H196v-0.4h0.7v-2.5c0-0.5,0-0.9-0.3-1.1
			c-0.2-0.2-0.4-0.2-0.6-0.2c-0.8,0-1.4,0.9-1.4,1.5v2.3h0.7V95H193v-0.4h0.7v-2.5c0-0.5,0-0.9-0.3-1.1c-0.2-0.2-0.4-0.2-0.6-0.2
			c-0.8,0-1.4,0.9-1.4,1.5v2.3h0.7V95h-2.2v-0.4h0.8v-3.9h-0.8v-0.4h1.5v1.2c0.6-1,1.2-1.3,1.8-1.3c0.8,0,1.2,0.4,1.3,1.3
			C195,90.5,195.6,90.2,196.1,90.2z"/>
	</g>
	<g>
		<path class="st0" d="M61.1,73.5H39.9c-0.8,0-1.4,0.6-1.4,1.4v1.5c0,0.8,0.6,1.4,1.4,1.4h21.2c0.8,0,1.4-0.6,1.4-1.4v-1.5
			C62.6,74.1,61.9,73.5,61.1,73.5z"/>
		<path class="st0" d="M61.1,80.6H39.9c-0.8,0-1.4,0.6-1.4,1.4v1.5c0,0.8,0.6,1.4,1.4,1.4h21.2c0.8,0,1.4-0.6,1.4-1.4V82
			C62.6,81.2,61.9,80.6,61.1,80.6z"/>
		<path class="st0" d="M61.1,87.7H39.9c-0.8,0-1.4,0.6-1.4,1.4v1.5c0,0.8,0.6,1.4,1.4,1.4h21.2c0.8,0,1.4-0.6,1.4-1.4v-1.5
			C62.6,88.3,61.9,87.7,61.1,87.7z"/>
		<path class="st0" d="M50.5,99.3c3.5,0,6.4-2,6.4-4.5H44.1C44.1,97.3,47,99.3,50.5,99.3z"/>
		<path class="st0" d="M50.8,19.7c0.7,0,1.4-0.6,1.4-1.4V2.7c0-0.7-0.6-1.4-1.4-1.4c-0.7,0-1.4,0.6-1.4,1.4v15.6
			C49.4,19.1,50,19.7,50.8,19.7z"/>
		<path class="st0" d="M86.8,15.4c-0.5-0.5-1.4-0.5-1.9,0l-11,11c-0.5,0.5-0.5,1.4,0,1.9c0.3,0.3,0.6,0.4,1,0.4c0.3,0,0.7-0.1,1-0.4
			l11-11C87.3,16.8,87.3,15.9,86.8,15.4z"/>
		<path class="st0" d="M97.5,47.6H81.9c-0.7,0-1.4,0.6-1.4,1.4c0,0.7,0.6,1.4,1.4,1.4h15.6c0.7,0,1.4-0.6,1.4-1.4
			C98.8,48.2,98.2,47.6,97.5,47.6z"/>
		<path class="st0" d="M16.8,15.4c-0.5-0.5-1.4-0.5-1.9,0c-0.5,0.5-0.5,1.4,0,1.9l11,11c0.3,0.3,0.6,0.4,1,0.4s0.7-0.1,1-0.4
			c0.5-0.5,0.5-1.4,0-1.9L16.8,15.4z"/>
		<path class="st0" d="M19.8,47.6H4.2c-0.7,0-1.4,0.6-1.4,1.4c0,0.7,0.6,1.4,1.4,1.4h15.6c0.7,0,1.4-0.6,1.4-1.4
			C21.2,48.2,20.6,47.6,19.8,47.6z"/>
		<path class="st0" d="M74,38.2c0-0.6-0.2-0.8-0.8-0.8c-2,0-3.9,0-5.9,0v3.8c0.7,0,1.3,0,2,0c0.7,0,0.9,0.2,0.9,0.9
			c0,7.2,0,14.3,0,21.5c0,0.4,0,0.8,0,1.3c0,1,0,1-1.1,1c-1.4,0-2.8,0-4.3,0c-3.4,0-6.8,0-10.2,0c-0.2,0-0.5-0.1-0.9-0.1
			c0.3-0.4,0.5-0.6,0.6-0.7c2.1-1.9,4.4-3,7.3-3c1.2,0,2.4,0,3.7,0c0.7,0,0.9-0.2,0.9-0.8c0-5.7,0-11.4,0-17h0v-7.6c0,0,0,0,0,0
			c0,0,0,0,0-0.1v-2.2h0c0-1.4,0-2.7,0-4.1c0-0.5-0.1-0.8-0.6-0.8c-3.4,0.1-6.8-0.2-10.2,0.7c-1.5,0.4-2.9,0.9-4.1,2
			c-0.5,0.4-0.8,0.4-1.3,0c-1.6-1.3-3.5-2-5.5-2.2c-2.8-0.3-5.7-0.3-8.6-0.4c-0.7,0-0.9,0.2-0.8,0.9c0,2.1,0,4.1,0,6.2
			c0,0.1,0,0.2,0,0.3v4.7c0,0.1,0,0.2,0,0.3c0,5.8,0,11.6,0,17.3c0,0.6,0,1.2,0,1.9c0,1,0,1,1,1c1.2,0,2.4,0,3.6,0
			c3,0.1,5.6,1.2,7.8,3.7c-0.5,0.1-0.8,0.2-1.1,0.2c-4.9,0-9.7,0-14.6,0c-0.7,0-0.9-0.3-0.9-0.9c0-7.7,0-15.3,0-23
			c0-0.5,0.2-0.8,0.7-0.8c0.7,0,1.4,0,2.2,0v-3.7c-1.9,0-3.9,0-5.8,0c-0.7,0-0.8,0.2-0.8,0.8c0,10.2,0,20.4,0,30.6
			c0,0.5,0.2,0.7,0.7,0.7c5.5,0,11-0.1,16.5,0c1.6,0,3.2,0.3,4.6,1.4c0.7,0.6,2.1,0.6,2.9,0.1c0.8-0.5,1.6-1.1,2.4-1.2
			c2-0.3,4-0.3,6-0.3c4.2,0,8.5,0,12.7,0c0.5,0,0.6-0.2,0.6-0.7c0-5.1,0-10.3,0-15.4c0,0,0,0,0,0C74,48.4,74,43.3,74,38.2z M51.2,63
			c-0.5,0.5-0.7,0.2-1-0.1c-1.6-1.7-3.5-3.1-5.7-3.7c-1.5-0.4-3-0.6-4.5-0.7c-0.7-0.1-1-0.3-1-1c0-2.5,0-5.1,0-7.6c0,0,0,0,0,0
			c0-2.5,0-5.1,0-7.6c0-0.1,0-0.3,0-0.4V37c0-0.1,0-0.2,0-0.3c0-0.3,0-0.7,0-1v-0.9c0-0.2,0-0.5,0-0.7c0-0.5,0.2-0.8,0.7-0.7
			c3.9,0,7.6,0.8,10.6,3.6c0.3,0.3,0.6,0.3,1,0c3-2.8,6.7-3.5,10.6-3.5c0.4,0,0.6,0.2,0.6,0.6c0,0.1,0,0.2,0,0.3h0v2.1
			c0,0,0,0.1,0,0.1c0,0.1,0,0.2,0,0.3v7.3h0c0,4.4,0,8.8,0,13.2c0,0.7-0.3,0.9-1,0.9C57.4,58.4,53.9,60,51.2,63z"/>
	</g>
</g>
</svg>
