<?xml version="1.0" encoding="utf-8"?>
<!-- Generator: Adobe Illustrator 21.0.0, SVG Export Plug-In . SVG Version: 6.00 Build 0)  -->
<svg version="1.1" id="Layer_1" xmlns="http://www.w3.org/2000/svg" xmlns:xlink="http://www.w3.org/1999/xlink" x="0px" y="0px"
	 viewBox="0 0 841.9 595.3" style="enable-background:new 0 0 841.9 595.3;" xml:space="preserve">
<style type="text/css">
	.st0{fill:#FFFFFF;}
</style>
<g>
	<g>
		<path class="st0" d="M358.8,327.9h-4.3v-5.4H368v19.8c1.8-3.9,4.9-6.5,9.4-6.5c3.3,0,5.7,1.2,7.5,3c2.7,2.7,4,7.1,4,12.3
			c0,5.3-1.6,9.6-4.2,12.3c-2,2-4.7,3.1-7.9,3.1c-5.2,0-8.4-2.5-10.3-6.2l-2.9,6h-4.8V327.9z M379.1,351.3c0-6.3-1.6-9.6-5.3-9.6
			c-4,0-6.3,4.4-6.3,10.1c0,5.8,2.3,9.8,6.3,9.8C377.4,361.5,379.1,358,379.1,351.3z"/>
		<path class="st0" d="M392.6,351.4c0-9.1,6.9-15.6,16-15.6c9.3,0,15.9,6.2,15.9,15.2c0,9.1-6.9,15.6-15.9,15.6
			C399.2,366.6,392.6,360.5,392.6,351.4z M414.4,351.2c0-7.9-2-11.1-6-11.1c-4,0-5.7,3.2-5.7,11.1c0,8,2,11.1,6,11.1
			S414.4,359.1,414.4,351.2z"/>
		<path class="st0" d="M428.1,351.4c0-9.1,6.9-15.6,16-15.6c9.3,0,15.9,6.2,15.9,15.2c0,9.1-6.9,15.6-15.9,15.6
			C434.6,366.6,428.1,360.5,428.1,351.4z M449.8,351.2c0-7.9-2-11.1-6-11.1c-4,0-5.7,3.2-5.7,11.1c0,8,2,11.1,6,11.1
			S449.8,359.1,449.8,351.2z"/>
		<path class="st0" d="M486.3,347.7l9.7,13.1h3.1v5.2H483v-5.2h3.3l-5.8-8.2l-3.8,3.4v4.8h3.1v5.2h-16.7v-5.2h4.3v-32.9h-4.3v-5.4
			h13.5v28.3l9.9-9.1h-4.7v-5.2h15.4v5.2h-4.4L486.3,347.7z"/>
		<path class="st0" d="M511.6,360.8h4.8v-32.9h-4.8v-5.4h14v38.2h4.8v5.2h-18.8V360.8z"/>
		<path class="st0" d="M533.6,360.8h4.8v-19h-4.8v-5.2h14v24.2h4.8v5.2h-18.8V360.8z M536.9,326.9c0-3.1,2.3-5.5,5.6-5.5
			c3.4,0,5.7,2.3,5.7,5.3c0,3.1-2.3,5.4-5.7,5.4C539.2,332.2,536.9,330,536.9,326.9z"/>
		<path class="st0" d="M569.2,354.8c-1.3,0-2.9-0.1-4-0.1c-1.8,0-3,0.9-3,2.1c0,1.3,1.2,2.1,4.5,2.1h8.1c7.7,0,10.9,3.2,10.9,7.9
			c0,5.9-5.4,10.3-18.1,10.3c-9.6,0-13.9-2.5-13.9-6.4c0-3,2.5-5,7-5.6v-0.3c-3.6-0.8-5.4-3-5.4-5.4c0-3,3-5.7,7.4-6.2
			c-4.2-1.1-6.8-3.6-6.8-7.8c0-5.4,4.7-9.4,12.8-9.4c2,0,3.8,0.2,5.4,0.6c1.4-4.1,4.5-6.7,8.4-6.7c3.7,0,5.4,2.2,5.4,4.5
			c0,2.2-1.5,3.9-4,3.9c-2.2,0-3.6-1.4-3.6-3.3c0-0.3,0.1-0.6,0.1-0.8c-1.3,0.1-2.5,1.3-3.4,3.5c3.1,1.6,4.9,4.2,4.9,7.7
			C581.9,351.4,577.4,354.8,569.2,354.8z M577.5,368.8c0-1.6-1.3-2.6-5-2.6H565c-3.5,0-5.1,1.3-5.1,3.1c0,1.9,2,3.5,8.7,3.5
			C574.9,372.7,577.5,371.1,577.5,368.8z M573,345.5c0-4-1.4-6.2-4.3-6.2c-2.8,0-4,2-4,6.2c0,4.2,1.4,6.2,4.3,6.2
			C571.8,351.6,573,349.7,573,345.5z"/>
		<path class="st0" d="M587.6,360.8h4.3v-32.9h-4.3v-5.4h13.5v20.6c2.3-4.5,5.4-7.2,10.1-7.2c6.4,0,9,4.3,9,10.4v14.5h4.2v5.2h-16.8
			v-5.2h3.3v-13.2c0-2-0.4-3.5-1.3-4.5c-0.7-0.6-1.6-1-3-1c-2.9,0-5.6,3-5.6,7.2v11.5h3.3v5.2h-16.8V360.8z"/>
		<path class="st0" d="M639.6,328.8v8h9.4v4.9h-9.4v14.9c0,2.7,0.9,4.2,3.1,4.2c1.9,0,2.8-1.4,3.9-5.5l3.8,1.1
			c-1.4,7.2-4.5,10.3-10.4,10.3c-6.4,0-9.6-3.3-9.6-10.1v-14.8h-5.2v-4.9h5.4v-6.9L639.6,328.8z"/>
	</g>
	<g>
		<path class="st0" d="M360.4,398.6h2.1v-14.9h-2.1v-1h3.7v15.9h2.1v1h-5.8V398.6z"/>
		<path class="st0" d="M367.5,398.6h2.1v-8.9h-2.1v-1h3.7v9.9h2.1v1h-5.8V398.6z M369,384.9c0-0.7,0.5-1.2,1.2-1.2
			c0.6,0,1.2,0.5,1.2,1.2c0,0.7-0.5,1.2-1.2,1.2C369.5,386.1,369,385.6,369,384.9z"/>
		<path class="st0" d="M375.8,383.7h-1.9v-1h3.4v8.5c0.9-1.8,2.2-2.7,3.7-2.7c1.1,0,1.9,0.4,2.5,1c1.1,1,1.6,2.6,1.6,4.5
			c0,1.9-0.6,3.6-1.7,4.7c-0.7,0.7-1.5,1.1-2.7,1.1c-1.5,0-3-1-3.6-2.7l-0.6,2.6h-0.8V383.7z M383.5,394.1c0-2.9-1.2-4.5-2.9-4.5
			c-1.8,0-3.3,2-3.3,4.8c0,2.8,1.5,4.3,3.2,4.3C382.3,398.7,383.5,397,383.5,394.1z"/>
		<path class="st0" d="M387.1,398.6h1.9v-8.9h-1.9v-1h3.4v2.6c0.8-1.8,2.1-2.8,3.4-2.8c1,0,1.6,0.7,1.6,1.5c0,0.7-0.5,1.3-1.2,1.3
			c-0.6,0-1.1-0.5-1.1-1.1c0-0.2,0-0.4,0.1-0.5c-1.3-0.1-2.5,1.6-2.8,2.5v6.4h2.2v1h-5.7V398.6z"/>
		<path class="st0" d="M396.8,397c0-0.7,0.2-1.4,0.7-1.9c0.8-0.8,1.9-1.2,4.2-1.5c1.5-0.3,1.8-0.3,1.8-0.7v-1c0-1.8-0.9-2.4-2.3-2.4
			c-1,0-1.8,0.3-2.3,0.8c0.4,0.2,0.7,0.6,0.7,1.1c0,0.7-0.5,1.2-1.2,1.2c-0.7,0-1.2-0.5-1.2-1.3c0-1.4,2-2.6,4.1-2.6
			c2.5,0,3.7,1.1,3.7,3.2v5.8c0,0.9,0.3,1.1,0.7,1.1c0.5,0,0.8-0.3,1.1-1l0.6,0.3c-0.5,1.2-1,1.8-2.1,1.8c-1,0-1.7-0.6-1.8-2.1h0
			c-0.8,1.3-2.2,2.1-3.7,2.1C397.9,399.8,396.8,398.7,396.8,397z M403.4,396.3v-2.4c-0.2,0.1-0.7,0.1-1.3,0.2
			c-2.6,0.4-3.7,1.1-3.7,2.6c0,1.4,0.7,2,2,2C402,398.8,403.4,397.6,403.4,396.3z"/>
		<path class="st0" d="M408.1,398.6h1.9v-8.9h-1.9v-1h3.4v2.6c0.8-1.8,2.1-2.8,3.4-2.8c1,0,1.6,0.7,1.6,1.5c0,0.7-0.5,1.3-1.2,1.3
			c-0.6,0-1.1-0.5-1.1-1.1c0-0.2,0-0.4,0.1-0.5c-1.3-0.1-2.5,1.6-2.8,2.5v6.4h2.2v1h-5.6V398.6z"/>
		<path class="st0" d="M419.7,401.7c0,0.4-0.1,0.7-0.3,0.9c0.8,0.1,1.9-0.4,2.9-3c-0.9-2.2-3.9-9.9-3.9-9.9h-1.5v-1h5.2v1h-1.9l3,8
			l3.1-8h-1.8v-1h4.1v1h-1.3l-3.7,9.3c-1.4,3.5-2.8,4.5-4.4,4.5c-1.3,0-2-0.7-2-1.5c0-0.8,0.5-1.4,1.3-1.4
			C419.2,400.7,419.7,401.1,419.7,401.7z"/>
		<path class="st0" d="M448,388.5c1.9,0,2.9,1.2,2.9,3.5v6.6h1.9v1h-5v-1h1.6v-5.7c0-1.2-0.1-2.1-0.6-2.6c-0.4-0.4-0.8-0.5-1.4-0.5
			c-1.8,0-3.3,2.1-3.3,3.5v5.3h1.6v1h-4.8v-1h1.6v-5.7c0-1.2-0.1-2.1-0.6-2.6c-0.4-0.4-0.8-0.5-1.4-0.5c-1.8,0-3.3,2.1-3.3,3.5v5.3
			h1.6v1h-5v-1h1.9v-8.9h-1.9v-1h3.4v2.8c1.4-2.4,2.8-3,4-3c1.8,0,2.7,1,2.9,3C445.3,389.2,446.7,388.5,448,388.5z"/>
		<path class="st0" d="M454.3,397c0-0.7,0.2-1.4,0.7-1.9c0.8-0.8,1.9-1.2,4.2-1.5c1.5-0.3,1.8-0.3,1.8-0.7v-1c0-1.8-0.9-2.4-2.3-2.4
			c-1,0-1.8,0.3-2.3,0.8c0.4,0.2,0.7,0.6,0.7,1.1c0,0.7-0.5,1.2-1.2,1.2c-0.7,0-1.2-0.5-1.2-1.3c0-1.4,2-2.6,4.1-2.6
			c2.5,0,3.7,1.1,3.7,3.2v5.8c0,0.9,0.3,1.1,0.7,1.1c0.5,0,0.8-0.3,1.1-1l0.6,0.3c-0.5,1.2-1,1.8-2.1,1.8c-1,0-1.7-0.6-1.8-2.1h0
			c-0.8,1.3-2.2,2.1-3.7,2.1C455.4,399.8,454.3,398.7,454.3,397z M461,396.3v-2.4c-0.2,0.1-0.7,0.1-1.3,0.2
			c-2.6,0.4-3.7,1.1-3.7,2.6c0,1.4,0.7,2,2,2C459.5,398.8,461,397.6,461,396.3z"/>
		<path class="st0" d="M465.7,398.6h1.9v-8.9h-1.9v-1h3.4v2.8c1.4-2.4,2.9-3,4.2-3c1.9,0,3,1.2,3,3.5v6.6h1.8v1H473v-1h1.7v-5.7
			c0-1.2-0.1-2-0.6-2.5c-0.4-0.4-0.9-0.5-1.5-0.5c-1.8,0-3.4,2.1-3.4,3.5v5.3h1.7v1h-5.2V398.6z"/>
		<path class="st0" d="M484,395.7c-0.5,0-1.1-0.1-1.5-0.1c-0.8,0-1.4,0.5-1.4,1c0,0.7,0.9,1,2.2,1h2.9c2.1,0,2.9,0.8,2.9,2.3
			c0,2-2.1,3.6-5.3,3.6c-2.9,0-4.6-1.1-4.6-2.6c0-1.1,1-1.9,2.3-2.2v0c-1.3-0.4-1.8-0.9-1.8-1.6s0.8-1.5,2.1-1.8
			c-1.2-0.6-1.9-1.5-1.9-3c0-2.3,1.9-3.6,4.1-3.6c0.6,0,1.3,0.1,1.9,0.4c0.8-1.4,1.7-2.2,2.8-2.2c0.7,0,1.3,0.5,1.3,1.2
			c0,0.6-0.4,1.1-1,1.1c-0.6,0-0.9-0.4-0.9-1c0-0.1,0-0.1,0-0.2c-0.4,0-1.1,0.6-1.6,1.5c1,0.6,1.6,1.5,1.6,2.8
			C488.1,394.4,486.4,395.7,484,395.7z M487.6,400.3c0-0.9-0.6-1.4-1.8-1.4h-2.8c-1.5,0-2.4,0.7-2.4,1.9c0,1.1,1,1.8,3.1,1.8
			C486.2,402.6,487.6,401.6,487.6,400.3z M486.4,392.2c0-1.6-0.9-2.8-2.5-2.8c-1.4,0-2.4,0.9-2.4,2.8c0,1.8,1.1,2.8,2.5,2.8
			C485.5,394.9,486.4,393.9,486.4,392.2z"/>
		<path class="st0" d="M490.8,397c0-0.7,0.2-1.4,0.7-1.9c0.8-0.8,1.9-1.2,4.2-1.5c1.5-0.3,1.8-0.3,1.8-0.7v-1c0-1.8-0.9-2.4-2.3-2.4
			c-1,0-1.8,0.3-2.3,0.8c0.4,0.2,0.7,0.6,0.7,1.1c0,0.7-0.5,1.2-1.2,1.2c-0.7,0-1.2-0.5-1.2-1.3c0-1.4,2-2.6,4.1-2.6
			c2.5,0,3.7,1.1,3.7,3.2v5.8c0,0.9,0.3,1.1,0.7,1.1c0.5,0,0.8-0.3,1.1-1l0.6,0.3c-0.5,1.2-1,1.8-2.1,1.8c-1,0-1.7-0.6-1.8-2.1h0
			c-0.8,1.3-2.2,2.1-3.7,2.1C491.9,399.8,490.8,398.7,490.8,397z M497.5,396.3v-2.4c-0.2,0.1-0.7,0.1-1.3,0.2
			c-2.6,0.4-3.7,1.1-3.7,2.6c0,1.4,0.7,2,2,2C496,398.8,497.5,397.6,497.5,396.3z"/>
		<path class="st0" d="M516.5,388.5c1.9,0,2.9,1.2,2.9,3.5v6.6h1.9v1h-5v-1h1.6v-5.7c0-1.2-0.1-2.1-0.6-2.6
			c-0.4-0.4-0.8-0.5-1.4-0.5c-1.8,0-3.3,2.1-3.3,3.5v5.3h1.6v1h-4.8v-1h1.6v-5.7c0-1.2-0.1-2.1-0.6-2.6c-0.4-0.4-0.8-0.5-1.4-0.5
			c-1.8,0-3.3,2.1-3.3,3.5v5.3h1.6v1h-5v-1h1.9v-8.9h-1.9v-1h3.4v2.8c1.4-2.4,2.8-3,4-3c1.8,0,2.7,1,2.9,3
			C513.8,389.2,515.2,388.5,516.5,388.5z"/>
		<path class="st0" d="M524.4,394.2c0,2.9,1.5,4.5,3.6,4.5c1.4,0,2.5-0.5,3.2-2.2h0.9c-0.7,2.2-2.2,3.3-4.3,3.3c-3,0-5-2.2-5-5.6
			c0-3.4,2.3-5.8,5-5.8c3.1,0,4.5,2.8,4.4,5.7H524.4z M524.4,393.3h6c-0.2-2.5-1.2-3.9-2.8-3.9C525.9,389.4,524.6,390.9,524.4,393.3
			z"/>
		<path class="st0" d="M533.9,398.6h1.9v-8.9h-1.9v-1h3.4v2.8c1.4-2.4,2.9-3,4.2-3c1.9,0,3,1.2,3,3.5v6.6h1.8v1h-5.1v-1h1.7v-5.7
			c0-1.2-0.1-2-0.6-2.5c-0.4-0.4-0.9-0.5-1.5-0.5c-1.8,0-3.4,2.1-3.4,3.5v5.3h1.7v1h-5.2V398.6z"/>
		<path class="st0" d="M550.6,385.4v3.3h3.6v1h-3.6v7.2c0,1.1,0.5,1.8,1.4,1.8s1.5-0.6,1.9-2l0.7,0.2c-0.6,2.2-1.6,2.9-3,2.9
			c-1.8,0-2.7-1.1-2.7-3v-7.1h-2.3v-1h2.3v-3L550.6,385.4z"/>
		<path class="st0" d="M560.4,395.7h0.8c0.6,2.1,1.8,3.3,3.8,3.3c1.4,0,2.4-0.7,2.4-1.8c0-1.2-0.8-1.7-3-2.3
			c-2.7-0.8-3.7-1.6-3.7-3.2c0-1.6,1.5-3.1,3.6-3.1c1.3,0,2.4,0.5,3,1.4l0.3-1.4h0.8v3.7h-0.8c-0.8-1.9-1.6-2.9-3.3-2.9
			c-1.2,0-2.2,0.7-2.2,1.7c0,1.1,0.9,1.7,2.9,2.3c2.8,0.8,3.8,1.5,3.8,3.3c0,1.6-1.4,3.2-3.7,3.2c-1.6,0-2.8-0.6-3.6-1.6l-0.3,1.6
			h-0.8V395.7z"/>
		<path class="st0" d="M572.3,401.7c0,0.4-0.1,0.7-0.3,0.9c0.8,0.1,1.9-0.4,2.9-3c-0.9-2.2-3.9-9.9-3.9-9.9h-1.5v-1h5.2v1h-1.9l3,8
			l3.1-8h-1.8v-1h4.1v1H580l-3.7,9.3c-1.4,3.5-2.8,4.5-4.4,4.5c-1.3,0-2-0.7-2-1.5c0-0.8,0.5-1.4,1.3-1.4
			C571.9,400.7,572.3,401.1,572.3,401.7z"/>
		<path class="st0" d="M582.2,395.7h0.8c0.6,2.1,1.8,3.3,3.8,3.3c1.4,0,2.4-0.7,2.4-1.8c0-1.2-0.8-1.7-3-2.3
			c-2.7-0.8-3.7-1.6-3.7-3.2c0-1.6,1.5-3.1,3.6-3.1c1.3,0,2.4,0.5,3,1.4l0.3-1.4h0.8v3.7h-0.8c-0.8-1.9-1.6-2.9-3.3-2.9
			c-1.2,0-2.2,0.7-2.2,1.7c0,1.1,0.9,1.7,2.9,2.3c2.8,0.8,3.8,1.5,3.8,3.3c0,1.6-1.4,3.2-3.7,3.2c-1.6,0-2.8-0.6-3.6-1.6l-0.3,1.6
			h-0.8V395.7z"/>
		<path class="st0" d="M595.6,385.4v3.3h3.6v1h-3.6v7.2c0,1.1,0.5,1.8,1.4,1.8s1.5-0.6,1.9-2l0.7,0.2c-0.6,2.2-1.6,2.9-3,2.9
			c-1.8,0-2.7-1.1-2.7-3v-7.1h-2.3v-1h2.3v-3L595.6,385.4z"/>
		<path class="st0" d="M602.5,394.2c0,2.9,1.5,4.5,3.6,4.5c1.4,0,2.5-0.5,3.2-2.2h0.9c-0.7,2.2-2.2,3.3-4.3,3.3c-3,0-5-2.2-5-5.6
			c0-3.4,2.3-5.8,5-5.8c3.1,0,4.5,2.8,4.4,5.7H602.5z M602.6,393.3h6c-0.2-2.5-1.2-3.9-2.8-3.9C604.1,389.4,602.8,390.9,602.6,393.3
			z"/>
		<path class="st0" d="M626.4,388.5c1.9,0,2.9,1.2,2.9,3.5v6.6h1.9v1h-5v-1h1.6v-5.7c0-1.2-0.1-2.1-0.6-2.6
			c-0.4-0.4-0.8-0.5-1.4-0.5c-1.8,0-3.3,2.1-3.3,3.5v5.3h1.6v1h-4.8v-1h1.6v-5.7c0-1.2-0.1-2.1-0.6-2.6c-0.4-0.4-0.8-0.5-1.4-0.5
			c-1.8,0-3.3,2.1-3.3,3.5v5.3h1.6v1h-5v-1h1.9v-8.9h-1.9v-1h3.4v2.8c1.4-2.4,2.8-3,4-3c1.8,0,2.7,1,2.9,3
			C623.7,389.2,625.1,388.5,626.4,388.5z"/>
	</g>
	<g>
		<path class="st0" d="M316.5,350.2h-48.6c-1.8,0-3.3,1.5-3.3,3.3v3.4c0,1.8,1.5,3.3,3.3,3.3h48.6c1.8,0,3.3-1.5,3.3-3.3v-3.4
			C319.8,351.7,318.3,350.2,316.5,350.2z"/>
		<path class="st0" d="M316.5,366.5h-48.6c-1.8,0-3.3,1.5-3.3,3.3v3.4c0,1.8,1.5,3.3,3.3,3.3h48.6c1.8,0,3.3-1.5,3.3-3.3v-3.4
			C319.8,368,318.3,366.5,316.5,366.5z"/>
		<path class="st0" d="M316.5,382.8h-48.6c-1.8,0-3.3,1.5-3.3,3.3v3.4c0,1.8,1.5,3.3,3.3,3.3h48.6c1.8,0,3.3-1.5,3.3-3.3v-3.4
			C319.8,384.3,318.3,382.8,316.5,382.8z"/>
		<path class="st0" d="M292.2,409.4c8.1,0,14.7-4.6,14.7-10.3h-29.4C277.5,404.8,284.1,409.4,292.2,409.4z"/>
		<path class="st0" d="M292.7,226.7c1.7,0,3.1-1.4,3.1-3.1v-35.9c0-1.7-1.4-3.1-3.1-3.1s-3.1,1.4-3.1,3.1v35.9
			C289.6,225.3,291,226.7,292.7,226.7z"/>
		<path class="st0" d="M375.5,216.9c-1.2-1.2-3.2-1.2-4.4,0l-25.4,25.4c-1.2,1.2-1.2,3.2,0,4.4c0.6,0.6,1.4,0.9,2.2,0.9
			c0.8,0,1.6-0.3,2.2-0.9l25.4-25.4C376.7,220.1,376.7,218.1,375.5,216.9z"/>
		<path class="st0" d="M400,290.9h-35.9c-1.7,0-3.1,1.4-3.1,3.1c0,1.7,1.4,3.1,3.1,3.1H400c1.7,0,3.1-1.4,3.1-3.1
			C403.1,292.3,401.7,290.9,400,290.9z"/>
		<path class="st0" d="M214.8,216.9c-1.2-1.2-3.2-1.2-4.4,0c-1.2,1.2-1.2,3.2,0,4.4l25.4,25.4c0.6,0.6,1.4,0.9,2.2,0.9
			c0.8,0,1.6-0.3,2.2-0.9c1.2-1.2,1.2-3.2,0-4.4L214.8,216.9z"/>
		<path class="st0" d="M221.7,290.9h-35.9c-1.7,0-3.1,1.4-3.1,3.1c0,1.7,1.4,3.1,3.1,3.1h35.9c1.7,0,3.1-1.4,3.1-3.1
			C224.8,292.3,223.4,290.9,221.7,290.9z"/>
		<path class="st0" d="M346.1,269.2c0-1.3-0.4-1.8-1.8-1.8c-4.5,0.1-9,0-13.5,0.1v8.7c1.5,0,3,0.1,4.5,0c1.5-0.1,2.1,0.5,2.1,2.1
			c0,16.4,0,32.9,0,49.3c0,1,0,1.9,0,2.9c0,2.3-0.1,2.4-2.4,2.4c-3.3,0-6.5,0-9.8,0c-7.8,0-15.7,0-23.5,0c-0.5,0-1.1-0.1-2.1-0.3
			c0.7-0.8,1.1-1.3,1.5-1.6c4.7-4.3,10.2-6.9,16.7-6.8c2.8,0,5.6-0.1,8.4,0.1c1.5,0.1,2-0.4,2-1.9c0-13,0-26.1,0.1-39.1h0v-17.5
			c0,0,0,0,0,0c0,0,0-0.1,0-0.1v-4.9h0c0-3.1,0-6.2,0-9.3c0-1-0.1-1.8-1.5-1.8c-7.8,0.1-15.7-0.4-23.4,1.6c-3.4,0.9-6.7,2.1-9.3,4.5
			c-1.1,1-1.8,0.9-2.9,0c-3.6-3-8-4.7-12.5-5.1c-6.5-0.6-13.1-0.6-19.7-0.9c-1.5-0.1-2,0.5-1.9,2c0.1,4.7,0,9.5,0.1,14.2
			c0,0.3,0,0.5,0,0.7v10.7c0,0.2,0.1,0.4,0.1,0.6c0,13.3,0,26.5,0,39.8c0,1.4,0,2.9,0.1,4.3c0.1,2.2,0.1,2.2,2.4,2.3
			c2.7,0,5.5-0.1,8.2,0c6.9,0.3,12.9,2.8,17.9,8.4c-1.1,0.2-1.8,0.4-2.5,0.4c-11.2,0-22.3,0-33.5,0c-1.6,0-2-0.6-2-2.2
			c0.1-17.6,0.1-35.2,0.1-52.8c0-1.3,0.4-1.8,1.7-1.8c1.7,0,3.3,0,5,0v-8.5c-4.4,0-8.9,0.1-13.3,0c-1.5,0-1.8,0.6-1.8,1.9
			c0,23.4,0,46.8,0,70.2c0,1.3,0.3,1.6,1.7,1.6c12.6-0.1,25.3-0.1,37.9,0c3.7,0,7.4,0.7,10.4,3.2c1.6,1.3,4.9,1.4,6.6,0.3
			c1.8-1.1,3.7-2.5,5.6-2.7c4.6-0.6,9.2-0.7,13.8-0.7c9.7-0.1,19.5,0,29.2,0.1c1.1,0,1.5-0.4,1.5-1.5c0-11.8,0-23.6,0-35.4
			c0,0,0.1,0,0.1,0C346.1,292.8,346.1,281,346.1,269.2z M293.7,326.3c-1.1,1.2-1.7,0.4-2.4-0.3c-3.7-4-8-7.1-13.2-8.6
			c-3.4-1-6.9-1.3-10.4-1.7c-1.6-0.2-2.2-0.6-2.2-2.2c0.1-5.8,0-11.7,0-17.5c0,0,0,0,0,0c0-5.8,0-11.7,0-17.5c0-0.3,0-0.6,0-0.8
			v-11.1c0-0.2,0-0.4,0-0.7c0-0.8,0-1.5,0-2.3v-2.1c0-0.5,0-1.1,0-1.6c0-1.2,0.4-1.7,1.7-1.7c9,0.1,17.4,1.8,24.2,8.2
			c0.8,0.7,1.4,0.7,2.2,0c6.8-6.4,15.3-8,24.2-8c1,0,1.5,0.4,1.4,1.4c0,0.3,0,0.5,0,0.8h0v4.9c0,0.1,0,0.2,0,0.3c0,0.2,0,0.5,0,0.7
			v16.8h0c0,10.1,0,20.2,0.1,30.4c0,1.6-0.7,2-2.2,2.1C307.9,315.6,300,319.3,293.7,326.3z"/>
	</g>
</g>
</svg>
